<svg
  width="100"
  height="38.42"
  fill="#FFFFFF"
  xmlns="http://www.w3.org/2000/svg"
  viewBox="0 0 400 153.68"
>
  <path class="matacapital" d="M150.37,0l-20.2,58.47h27.48l11.76-34.03h4.04l14.1,39.7l-0.93-0.21
		c-23.8-5.19-48.25,1.85-65.5,18.85l17.65,17.64c8.67-8.52,20.36-13.29,32.52-13.25c12.16-0.03,23.85,4.73,32.52,13.25l17.87-17.93
		L192.25,0H150.37z M81.96,98.02h28.23V0H88.41L55.36,46.58L22.3,0H0.52v98.02h28.23l-0.15-45.81l19.57,29.35h14.53L81.96,52.5
		C81.96,52.5,81.96,98.02,81.96,98.02z M246.83,98.02h28.37V24.44h32V0h-92.37v24.44h31.99L246.83,98.02L246.83,98.02z M328.67,0
		l-20.2,58.47h27.48l11.76-34.03h4.04l14.1,39.7l-0.93-0.21c-23.81-5.19-48.25,1.85-65.5,18.85l17.64,17.64
		c8.67-8.53,20.36-13.29,32.52-13.25c12.16-0.03,23.84,4.73,32.52,13.25l17.87-17.93L370.54,0C370.54,0,328.67,0,328.67,0z
		M31.88,137.25l-0.09,0.62c-1.01,6.79-5.85,11.01-12.62,11.01c-8.53,0-13.86-5.56-13.91-14.51c0-8.98,4.91-14.56,12.82-14.56
		c5.56,0,9.64,3.48,10.64,9.08l0.1,0.59l5.05-1.21l-0.12-0.54c-1.64-7.74-7.79-12.74-15.67-12.74C7.1,114.99,0,122.6,0,134.36
		c0,11.74,7.53,19.32,19.17,19.32c9.38,0,16.34-5.75,17.72-14.65l0.08-0.51C36.97,138.51,31.88,137.25,31.88,137.25z M89.19,116.24
		h-5.75l-14.06,36.2h5.64l3.23-8.4h16.14l3.18,8.41h5.59L89.19,116.24L89.19,116.24z M92.71,139.22H79.87l6.45-16.88L92.71,139.22
		L92.71,139.22z M246.82,116.24v4.81h11.6v31.38h5.26v-31.38h11.56v-4.81H246.82z M154.81,116.24h-14.94v36.2h5.16v-13.83h9.78
		c7.83,0,13.3-4.59,13.3-11.16C168.1,120.85,162.64,116.24,154.81,116.24z M154.81,133.75h-9.78v-12.7h9.78
		c4.73,0,8.04,2.63,8.04,6.4C162.85,131.16,159.54,133.75,154.81,133.75z M208.85,116.24h-5.26v36.2h5.26V116.24L208.85,116.24z
		M326.11,116.24h-5.75l-14.07,36.2h5.64l3.23-8.4h16.13l3.18,8.41h5.59C340.06,152.44,326.11,116.24,326.11,116.24z M329.63,139.22
		h-12.84l6.44-16.88L329.63,139.22z M382.04,147.63v-31.39h-5.26v36.2H400v-4.81H382.04z"/>
</svg>